<?xml version="1.0" standalone="no"?>
<!DOCTYPE svg PUBLIC "-//W3C//DTD SVG 20010904//EN"
 "http://www.w3.org/TR/2001/REC-SVG-20010904/DTD/svg10.dtd">
<svg version="1.0" xmlns="http://www.w3.org/2000/svg"
 width="500.000000pt" height="500.000000pt" viewBox="0 0 500.000000 500.000000"
 preserveAspectRatio="xMidYMid meet">
<metadata>
Created by potrace 1.11, written by Peter Selinger 2001-2013
</metadata>
<g transform="translate(0.000000,500.000000) scale(0.100000,-0.100000)"
fill="#000000" stroke="none">
<path d="M2220 4985 c-155 -21 -182 -25 -190 -30 -4 -2 -25 -7 -46 -9 -21 -3
-86 -19 -144 -36 -58 -17 -112 -32 -120 -34 -108 -29 -378 -154 -520 -241
-236 -145 -507 -385 -662 -586 -233 -301 -404 -664 -481 -1019 -25 -112 -30
-143 -45 -280 -14 -130 -6 -547 13 -602 2 -7 6 -32 9 -55 6 -47 8 -55 36 -178
76 -332 242 -673 468 -965 97 -125 320 -343 452 -441 108 -81 261 -178 358
-227 23 -12 59 -31 80 -41 158 -81 495 -186 667 -207 22 -3 46 -7 53 -10 35
-11 196 -19 377 -18 188 0 303 10 445 39 14 2 37 7 51 9 131 21 414 120 576
200 100 50 322 179 333 195 3 3 17 14 32 24 121 77 381 325 499 477 82 105
185 263 233 354 20 38 40 74 44 80 5 6 21 40 36 76 15 36 34 80 43 98 51 113
138 432 157 577 28 207 29 564 1 720 -3 17 -7 44 -10 60 -3 17 -7 41 -10 55
-3 14 -8 39 -10 55 -25 143 -105 374 -191 553 -91 189 -184 334 -335 527 -58
74 -303 307 -394 375 -55 41 -101 78 -103 83 -2 4 -8 7 -13 7 -6 0 -36 17 -67
39 -49 33 -227 134 -242 137 -3 0 -39 17 -80 36 -99 46 -287 112 -408 142
-101 26 -125 30 -232 46 -36 6 -78 13 -95 16 -64 12 -472 11 -565 -1z"/>
</g>
</svg>
